<svg width="12" height="17" viewBox="0 0 12 17" fill="none" xmlns="http://www.w3.org/2000/svg">
<path fill-rule="evenodd" clip-rule="evenodd" d="M1.7484 1.74207C-0.346092 3.82233 -0.593154 7.70548 1.19343 10.09L6.00008 17L10.8058 10.1204C12.5933 7.7359 12.3462 3.82233 10.2518 1.74296C9.1114 0.611122 7.60229 1.69745e-05 6.00008 1.69745e-05C5.20714 -0.00185696 4.42195 0.151445 3.69143 0.450761C2.96092 0.750076 2.30008 1.18926 1.7484 1.74207ZM5.91429 8.5C7.28711 8.5 8.4 7.39638 8.4 6.035C8.4 4.67362 7.28711 3.57 5.91429 3.57C4.54146 3.57 3.42857 4.67362 3.42857 6.035C3.42857 7.39638 4.54146 8.5 5.91429 8.5Z" fill="url(#paint0_linear)"/>
<defs>
<linearGradient id="paint0_linear" x1="0" y1="8" x2="12" y2="8" gradientUnits="userSpaceOnUse">
<stop stop-color="#F15F79"/>
<stop offset="1" stop-color="#C84E89"/>
</linearGradient>
</defs>
</svg>
