<svg width="10" height="5" viewBox="0 0 10 5" fill="none" xmlns="http://www.w3.org/2000/svg">
<path d="M5.27441 4.89451L9.88692 0.612382C10.038 0.472083 10.0377 0.244936 9.88614 0.104872C9.73459 -0.0350833 9.48911 -0.0347217 9.33795 0.105595L9.0823 0.342941C6.78031 2.48004 3.21969 2.48 0.917746 0.34286L0.662029 0.105451C0.510859 -0.0348482 0.265527 -0.0352098 0.113965 0.104727C0.0379887 0.17494 3.18303e-09 0.266924 4.27993e-09 0.358907C5.37402e-09 0.450656 0.037735 0.542278 0.113184 0.612364L4.72557 4.89451C4.79819 4.96208 4.89701 5 4.99998 5C5.10295 5 5.20166 4.96197 5.27441 4.89451Z" fill="url(#paint0_linear)"/>
<defs>
<linearGradient id="paint0_linear" x1="5" y1="5.96244e-08" x2="5" y2="5" gradientUnits="userSpaceOnUse">
<stop stop-color="#C84E89"/>
<stop offset="1" stop-color="#F15F79"/>
</linearGradient>
</defs>
</svg>
